<svg width="21" height="21" viewBox="0 0 21 21" fill="none" xmlns="http://www.w3.org/2000/svg">
<path d="M11.2259 7.72422L11.2626 8.32976L10.6506 8.25561C8.42271 7.97138 6.47641 7.00746 4.82389 5.38857L4.01599 4.5853L3.8079 5.17848C3.36723 6.50078 3.64877 7.89723 4.56683 8.83643C5.05647 9.35547 4.9463 9.42962 4.10168 9.12067C3.8079 9.0218 3.55084 8.94766 3.52636 8.98473C3.44067 9.07124 3.73445 10.1958 3.96703 10.6407C4.28529 11.2586 4.93406 11.8641 5.64403 12.2225L6.24383 12.5067L5.53386 12.5191C4.84837 12.5191 4.82389 12.5315 4.89734 12.791C5.14216 13.5942 6.10919 14.4469 7.18638 14.8177L7.94532 15.0772L7.28431 15.4727C6.30504 16.0411 5.1544 16.3624 4.00375 16.3871C3.45291 16.3995 3 16.4489 3 16.486C3 16.6096 4.49339 17.3016 5.36249 17.5735C7.9698 18.3768 11.0667 18.0307 13.3925 16.659C15.045 15.6827 16.6976 13.7425 17.4687 11.8641C17.8849 10.8631 18.3011 9.03416 18.3011 8.15675C18.3011 7.58828 18.3378 7.51413 19.0233 6.83445C19.4273 6.43899 19.8067 6.00646 19.8802 5.88289C20.0026 5.64808 19.9904 5.64808 19.3661 5.85817C18.3256 6.22891 18.1787 6.17948 18.6928 5.62337C19.0723 5.22791 19.5252 4.51115 19.5252 4.30107C19.5252 4.26399 19.3416 4.32578 19.1335 4.437C18.9132 4.56058 18.4235 4.74595 18.0563 4.85718L17.3953 5.06726L16.7955 4.65945C16.465 4.437 15.9998 4.18985 15.755 4.1157C15.1307 3.94269 14.1759 3.9674 13.6128 4.16513C12.0827 4.72124 11.1157 6.15476 11.2259 7.72422Z" fill="#ffffff"/>
</svg>
