<svg width="48" height="30" viewBox="0 0 48 30" fill="none" xmlns="http://www.w3.org/2000/svg">
<path d="M8.47889 16.1493C8.45212 16.0072 8.37213 15.8808 8.25543 15.7963C8.20834 15.7471 8.14967 15.7105 8.08484 15.6901C8.02001 15.6696 7.9511 15.666 7.88449 15.6794C7.82148 15.6924 7.76211 15.7192 7.71071 15.7581C7.6593 15.797 7.61716 15.8469 7.5873 15.9042L7.43534 16.1515C7.3549 16.2999 7.26552 16.4528 7.16497 16.6192C7.06441 16.7856 7.03984 16.844 7.02866 16.8665L6.44321 17.813C6.24285 18.1405 5.99591 18.4367 5.71027 18.6921C5.57333 18.8335 5.40695 18.9425 5.22312 19.0114C5.19407 19.0114 5.18067 19.0114 5.17844 19.0114C5.15824 18.9852 5.14514 18.9542 5.14044 18.9214C5.11661 18.8024 5.1076 18.6808 5.11363 18.5595C5.1315 18.3774 5.14938 18.202 5.16726 18.0401C5.22777 17.6787 5.31289 17.3219 5.422 16.9722C5.54043 16.5877 5.66334 16.2212 5.79071 15.8795L6.06779 15.0836C6.15855 14.8559 6.2223 14.6181 6.25772 14.3754C6.32718 14.0395 6.32718 13.6928 6.25772 13.3569C6.2277 13.1967 6.14317 13.052 6.01864 12.9477C5.94366 12.8826 5.85292 12.8386 5.75563 12.82C5.65833 12.8015 5.55792 12.8091 5.46447 12.842C5.24759 12.9105 5.05659 13.0438 4.91699 13.2242C4.75163 13.3974 4.55946 13.584 4.33824 13.7863C4.11702 13.9887 3.66787 14.1528 3.50252 14.0494C3.33716 13.946 3.40867 13.6649 3.4556 13.4985C3.55967 13.1136 3.63437 12.7213 3.67906 12.3249C3.73993 11.9973 3.73993 11.6611 3.67906 11.3334C3.55839 10.8096 3.18745 10.8365 3.03326 10.8838C2.88981 10.925 2.75715 10.9976 2.64475 11.0963C2.53236 11.195 2.44298 11.3174 2.383 11.4548C2.21194 11.765 2.08342 12.097 2.0009 12.4418C1.9184 12.8205 1.86904 13.2057 1.85341 13.593C1.84628 13.9239 1.8831 14.2543 1.9629 14.5755C1.81331 15.0788 1.63422 15.5728 1.4266 16.0549C1.20314 16.6102 0.96182 17.1475 0.709314 17.6512C0.456809 18.1548 0.262398 18.5662 0.0635225 18.9012C0.000435412 19.0173 -0.0164177 19.1532 0.0163599 19.2814C0.0491374 19.4095 0.129104 19.5204 0.240062 19.5915C0.550666 19.7691 0.910414 19.5263 1.03331 19.3666C1.27061 19.0205 1.48273 18.6576 1.66795 18.2807C1.92046 17.8175 2.17072 17.3004 2.41652 16.7451C2.63998 16.228 2.82545 15.7199 2.97964 15.2297C3.26166 15.2446 3.54427 15.2158 3.8176 15.1443C4.10993 15.0737 4.39275 14.9681 4.66001 14.8295C4.75591 14.7782 4.84914 14.7219 4.93933 14.6609C4.83877 15.0116 4.71589 15.3871 4.57064 15.7851C4.35335 16.3903 4.17276 17.0082 4.02987 17.6354C3.88028 18.2245 3.8711 18.8408 4.00306 19.4341C4.02843 19.5715 4.08312 19.7018 4.16337 19.8159C4.24361 19.93 4.34747 20.0253 4.46784 20.0951C4.62067 20.1736 4.79012 20.2136 4.96169 20.212C5.06633 20.211 5.1705 20.1982 5.27227 20.1738C5.60041 20.0949 5.90913 19.9496 6.17952 19.7466C6.47976 19.5123 6.75263 19.2445 6.9929 18.9484C7.21636 18.6516 7.48674 18.2739 7.77276 17.8243C8.02548 17.4449 8.24315 17.043 8.42303 16.6237C8.49854 16.4777 8.51841 16.309 8.47889 16.1493Z" fill="#FFFFFF"/>
<path d="M19.4605 22.134C17.2754 22.1959 8.43186 22.6737 6.00419 23.8607C5.54177 24.0868 5.27923 24.4308 5.4618 24.8088C5.67247 25.245 6.13407 25.0912 6.65428 24.8368C7.43696 24.4542 8.29908 24.2963 9.1586 24.1388C9.25124 24.1219 9.34384 24.1049 9.43631 24.0877C13.1507 23.4937 17.6803 23.2561 21.474 23.2703C22.7532 23.2559 24.9227 23.3095 26.1416 23.5403C26.335 23.5779 26.5033 23.7241 26.6681 23.8673C26.9065 24.0743 27.1379 24.2753 27.4283 24.1333C27.7462 23.9779 27.9377 23.5607 27.7692 23.2118C27.108 21.8427 21.4399 22.0587 19.6582 22.1266C19.5857 22.1293 19.5196 22.1319 19.4605 22.134Z" fill="url(#paint0_linear_4_98)"/>
<path d="M15.4201 14.072C15.56 14.0623 15.6984 14.1056 15.8081 14.1934C15.8812 14.2427 15.9426 14.3075 15.988 14.3833C16.0333 14.459 16.0616 14.5439 16.0708 14.6319C16.0779 14.8468 16.0008 15.0558 15.856 15.2139C14.659 16.6322 12.0516 19.3418 9.40022 19.5859C9.13109 19.6163 8.85864 19.5911 8.59952 19.5119C8.3404 19.4327 8.10008 19.301 7.89329 19.1251C7.6865 18.9491 7.51759 18.7325 7.3969 18.4886C7.27621 18.2447 7.20629 17.9785 7.19141 17.7064C7.03775 15.9949 8.72102 12.7178 10.5266 12.5548C11.1536 12.4973 11.884 13.0627 11.9563 13.8744C12.1018 15.4785 10.3612 16.5894 9.18985 16.6976C9.08742 16.7042 8.98729 16.7311 8.89521 16.7767C8.80314 16.8223 8.72093 16.8858 8.65331 16.9635C8.58568 17.0412 8.53397 17.1315 8.50114 17.2294C8.46832 17.3272 8.45502 17.4306 8.46202 17.5337C8.47403 17.658 8.51118 17.7785 8.5712 17.8878C8.63123 17.9971 8.71287 18.093 8.81107 18.1694C8.90926 18.2458 9.02195 18.3012 9.14221 18.3322C9.26248 18.3631 9.38775 18.369 9.51035 18.3495C11.5736 18.1618 13.5735 15.9735 14.7848 14.4947C14.9374 14.2796 15.1637 14.129 15.4201 14.072ZM10.4239 14.0523C10.1517 14.0789 9.53879 14.751 9.56143 14.9955C9.56153 15.0097 9.56482 15.0237 9.57101 15.0365C9.5772 15.0493 9.58616 15.0605 9.59723 15.0693C9.6083 15.0781 9.62118 15.0843 9.63495 15.0875C9.64872 15.0906 9.66305 15.0906 9.67682 15.0875C10.0657 15.0505 10.5536 14.2837 10.5417 14.1443C10.5413 14.13 10.5377 14.1159 10.5312 14.1032C10.5248 14.0904 10.5156 14.0792 10.5043 14.0704C10.4931 14.0617 10.4801 14.0555 10.4662 14.0523C10.4523 14.0492 10.4378 14.0492 10.4239 14.0523Z" fill="#FFFFFF"/>
<path d="M24.5601 13.2406C24.7146 13.2396 24.8644 13.2938 24.9829 13.3937C25.1013 13.4936 25.1805 13.6326 25.2065 13.7858C25.2125 14.0176 25.1288 14.2426 24.973 14.4134C24.2846 15.2314 21.9582 17.8074 20.3543 17.9534C19.7832 18.0056 19.3032 17.7492 19.0203 16.998C18.8944 16.6644 18.8917 15.5993 18.5685 15.6289C18.3085 15.651 17.9502 16.2496 17.8333 16.4013C17.3837 16.977 16.0517 18.3125 15.0747 18.401C14.5061 18.4533 14.085 17.9748 14.0176 17.2266C13.8831 15.7205 15.1519 13.1885 16.7802 13.0386C17.5481 12.9692 18.012 13.537 18.3206 13.5093C18.8309 13.4622 18.9848 12.1542 19.6119 12.0943C19.6951 12.0907 19.7782 12.1037 19.8564 12.1325C19.9346 12.1614 20.0064 12.2055 20.0676 12.2623C20.1288 12.3191 20.1782 12.3876 20.213 12.4637C20.2478 12.5398 20.2673 12.6221 20.2704 12.7058C20.3621 13.7205 19.9186 14.5987 20.0279 15.7944C20.0626 16.1734 20.1197 16.6727 20.4818 16.6396C21.8183 16.518 23.2229 14.5174 23.9375 13.6443C24.0869 13.4354 24.3093 13.2912 24.5601 13.2406ZM15.2973 16.7349C15.2939 16.8298 15.3331 16.8824 15.4303 16.8738C15.931 16.8264 17.4686 15.167 17.4253 14.6902C17.4079 14.4994 17.1403 14.3995 16.8753 14.4263C16.1196 14.4937 15.2344 15.9308 15.2973 16.7349Z" fill="#FFFFFF"/>
<path d="M24.9989 17.2058C25.0138 18.0667 25.1034 18.7377 25.593 18.7288C26.8049 18.705 28.6814 13.7022 29.3038 12.833C29.5154 12.5434 29.9042 11.9046 30.2825 11.894C30.4262 11.9018 30.562 11.963 30.6634 12.0658C30.7649 12.1686 30.8248 12.3056 30.8315 12.4503C30.8419 13.1014 29.8341 13.9784 29.6255 14.4532C28.8704 16.1778 27.1184 20.0836 25.3757 20.1148C24.1856 20.1371 23.7964 18.9116 23.7772 17.434C23.7052 13.4639 25.8322 3.81307 26.2968 1.34917C26.3775 0.92564 26.5874 0.0121123 27.1255 0.00013875C27.5618 -0.00825393 27.7154 0.365384 27.7226 0.770196C27.7472 2.16509 26.5747 6.11891 26.1243 8.59552C25.9747 9.44788 24.9583 14.9818 24.9989 17.2058Z" fill="#FFFFFF"/>
<path d="M37.9212 12.5542C37.931 13.0224 37.459 13.2123 37.0397 13.2213C35.2364 13.2528 34.5131 11.9566 34.152 11.9629C33.7908 11.9691 32.1313 17.7378 30.0227 17.7751C29.281 17.7894 28.9873 16.8672 28.9716 16.0307C28.937 14.1066 29.397 12.7075 29.7914 11.111C29.9276 10.5604 30.0676 9.50295 30.7996 9.48832C31.1341 9.48108 31.3345 9.76626 31.3419 10.1638C31.3653 11.4611 30.1798 13.8986 30.2175 15.8716C30.2112 16.0444 30.2462 16.148 30.3092 16.1479C31.303 16.1282 33.1825 10.3725 33.606 9.44488C33.8473 8.93463 34.3709 7.78646 35.1198 7.77246C35.2726 7.78144 35.4168 7.84632 35.5253 7.95489C35.6338 8.06346 35.6991 8.20821 35.7089 8.36186C35.7245 9.20321 35.106 9.22443 35.1239 10.2048C35.1394 11.0486 35.6645 11.7989 36.7578 11.9072C37.2655 11.9331 37.9049 11.8005 37.9212 12.5542Z" fill="#FFFFFF"/>
<path d="M37.8404 10.4225C38.3252 10.4135 38.4897 10.7534 38.4962 11.1777C38.5133 12.1093 37.5435 17.0234 37.5586 17.9452C37.5503 18.1739 37.6398 18.2455 37.7901 18.2412C38.0078 18.2492 38.6456 18.0288 39.0302 18.0429C39.3744 18.036 39.7941 18.2171 39.8015 18.6828C39.8095 19.0633 39.4284 19.2858 39.0245 19.3368C38.4921 19.3904 37.327 19.3916 37.0954 19.968C36.8271 20.6893 36.6958 21.8421 36.4845 22.6629C35.8618 25.0772 34.3125 29.9409 31.244 29.9991C29.6322 30.0278 29.1098 28.7341 29.0795 27.3609C29.0022 22.8032 32.1191 20.4048 35.2728 18.9971C36.3339 18.5218 36.2402 18.3014 36.4018 17.1814C36.7239 14.9731 36.9093 13.6639 37.1711 11.4484C37.2366 10.978 37.3653 10.4319 37.8404 10.4225ZM31.3126 28.7051C33.7582 28.6582 35.2521 23.1856 35.6231 21.0985C35.6532 20.9474 35.6685 20.7937 35.6687 20.6395C35.6641 20.3664 35.5689 20.2533 35.404 20.257C35.1185 20.3151 34.8508 20.4406 34.623 20.6232C32.5009 22.037 30.27 23.9146 30.3327 27.2703C30.3375 28.0065 30.5662 28.7143 31.3128 28.7002L31.3126 28.7051Z" fill="#FFFFFF"/>
<path d="M38.4369 9.29883C38.5126 9.26474 38.5807 9.21552 38.637 9.15414L38.6372 9.14927C38.9378 8.80691 38.9442 7.89324 39.3165 7.3098C39.46 7.13749 39.5457 6.92401 39.5614 6.69978C39.5396 6.54367 39.4636 6.40036 39.3468 6.29527C39.23 6.19018 39.08 6.13008 38.9234 6.12564C38.1381 6.14074 37.5475 7.8689 37.5628 8.65176C37.5548 8.74045 37.5653 8.82984 37.5935 8.91426C37.6216 8.99867 37.667 9.07628 37.7265 9.14216C37.7861 9.20803 37.8586 9.26074 37.9394 9.29695C38.0203 9.33315 38.1078 9.35205 38.1963 9.35246C38.2793 9.35118 38.3611 9.33292 38.4369 9.29883Z" fill="url(#paint1_linear_4_98)"/>
<path d="M40.3922 10.3864C40.4764 10.3852 40.5599 10.4012 40.6377 10.4337C40.7154 10.4661 40.7858 10.5143 40.8444 10.5751C40.903 10.6359 40.9486 10.7081 40.9784 10.7873C41.0083 10.8665 41.0217 10.951 41.0179 11.0356C41.0232 11.4233 40.8845 11.9081 40.8905 12.2787C40.9028 13.0103 41.1532 13.5215 41.8149 13.5092C44.1368 13.4675 44.7519 10.6582 45.4139 9.16657C45.5482 8.86686 45.8008 8.31314 46.1716 8.30723C46.7072 8.2976 46.8225 8.99394 46.8344 9.60363C46.8781 12.0788 46.0872 16.1295 46.0975 16.5832C46.1025 16.8466 46.1726 16.9173 46.3277 16.9133C46.4829 16.9092 46.8332 16.8002 47.2259 16.7926C47.7372 16.7846 47.996 17.0646 48.0014 17.3816C47.9987 17.5205 47.9515 17.6548 47.8668 17.7645C47.782 17.8743 47.6644 17.9536 47.5313 17.9907C46.4223 18.3839 45.7859 17.7635 45.3623 19.4978C45.2087 20.1258 45.1216 20.7952 44.9647 21.4499C44.3327 24.0539 42.7823 28.6811 39.5296 28.7399C38.0196 28.7675 37.2433 27.6643 37.2053 26.035C37.1318 22.0428 40.3513 19.0169 43.3994 17.7833C45.0288 17.1338 45.1457 13.7676 45.1356 13.2433C45.1402 13.1143 45.1166 12.9648 45.0681 12.9655C44.981 12.9623 43.4254 14.8549 41.804 14.8809C40.5339 14.905 39.6168 13.8089 39.5868 12.2286C39.5847 11.8036 39.6334 11.3799 39.7318 10.9666C39.7579 10.8079 39.8381 10.6632 39.9586 10.5574C40.0791 10.4515 40.2323 10.3911 40.3922 10.3864ZM43.8153 18.9391C42.315 18.967 38.4225 22.9869 38.4785 25.8598C38.4938 26.7743 38.8744 27.4365 39.5385 27.4242C42.3016 27.3719 44.1821 21.0533 44.1529 19.3828C44.1429 19.0559 44.0116 18.9365 43.8153 18.9391Z" fill="#FFFFFF"/>
<defs>
<linearGradient id="paint0_linear_4_98" x1="29.0225" y1="21.3725" x2="3.7758" y2="24.7724" gradientUnits="userSpaceOnUse">
<stop stop-color="#309AFC"/>
<stop offset="0.333333" stop-color="#5754FF"/>
<stop offset="0.666667" stop-color="#FF51A4"/>
<stop offset="1" stop-color="#FF7C51"/>
</linearGradient>
<linearGradient id="paint1_linear_4_98" x1="37.5357" y1="9.92724" x2="41.7608" y2="5.76405" gradientUnits="userSpaceOnUse">
<stop stop-color="#309AFC"/>
<stop offset="0.333333" stop-color="#5754FF"/>
<stop offset="0.666667" stop-color="#FF51A4"/>
<stop offset="1" stop-color="#FF7C51"/>
</linearGradient>
</defs>
</svg>
